<?xml version="1.0"?><svg xmlns="http://www.w3.org/2000/svg" viewBox="0 0 400 400" width="400" height="400"><g transform="translate(200, 200)"><g class="pie"><path d="M1.2246467991473532e-14,-200A200,200,0,0,1,51.76380902050415,-193.18516525781365L0,0Z" fill="#8e8e93" opacity="0.8"></path><text fill="black" transform="translate(13.052619222005172,-99.14448613738104)" dy="5" text-anchor="middle"></text></g><g class="pie"><path d="M51.76380902050415,-193.18516525781365A200,200,0,0,1,173.2050807568877,100.00000000000004L0,0Z" fill="#007aff" opacity="0.8"></path><text fill="black" transform="translate(92.38795325112868,-38.268343236508954)" dy="5" text-anchor="middle">Sleep</text></g><g class="pie"><path d="M173.2050807568877,100.00000000000004A200,200,0,0,1,158.670668058247,121.75228580174415L0,0Z" fill="#8e8e93" opacity="0.8"></path><text fill="black" transform="translate(83.14696123025452,55.55702330196024)" dy="5" text-anchor="middle"></text></g><g class="pie"><path d="M158.670668058247,121.75228580174415A200,200,0,0,1,-158.670668058247,121.75228580174418L0,0Z" fill="#34c759" opacity="0.8"></path><text fill="black" transform="translate(6.123233995736766e-15,100)" dy="5" text-anchor="middle">Work</text></g><g class="pie"><path d="M-158.670668058247,121.75228580174418A200,200,0,0,1,-173.2050807568877,100.00000000000007L0,0Z" fill="#8e8e93" opacity="0.8"></path><text fill="black" transform="translate(-83.14696123025453,55.557023301960214)" dy="5" text-anchor="middle"></text></g><g class="pie"><path d="M-173.2050807568877,100.00000000000007A200,200,0,0,1,-51.76380902050413,-193.18516525781365L0,0Z" fill="#5856d6" opacity="0.8"></path><text fill="black" transform="translate(-92.38795325112866,-38.268343236509004)" dy="5" text-anchor="middle">Running</text></g><g class="pie"><path d="M-51.76380902050413,-193.18516525781365A200,200,0,0,1,-3.6739403974420595e-14,-200L0,0Z" fill="#8e8e93" opacity="0.8"></path><text fill="black" transform="translate(-13.052619222005163,-99.14448613738104)" dy="5" text-anchor="middle"></text></g></g></svg>