<?xml version="1.0"?><svg xmlns="http://www.w3.org/2000/svg" viewBox="0 0 400 400" width="400" height="400"><g transform="translate(200, 200)"><g class="pie"><path d="M1.2246467991473532e-14,-200A200,200,0,0,1,173.20508075688775,99.99999999999997L0,0Z" fill="#007aff" opacity="0.8"></path><text fill="black" transform="translate(86.60254037844386,-50)" dy="5" text-anchor="middle">Sleep</text></g><g class="pie"><path d="M173.20508075688775,99.99999999999997A200,200,0,0,1,141.4213562373095,141.42135623730948L0,0Z" fill="#34c759" opacity="0.8"></path><text fill="black" transform="translate(79.3353340291235,60.876142900872075)" dy="5" text-anchor="middle">Breakfast</text></g><g class="pie"><path d="M141.4213562373095,141.42135623730948A200,200,0,0,1,-26.105238444010276,198.2889722747621L0,0Z" fill="#8e8e93" opacity="0.8"></path><text fill="black" transform="translate(32.14394653031617,94.69301294951056)" dy="5" text-anchor="middle"></text></g><g class="pie"><path d="M-26.105238444010276,198.2889722747621A200,200,0,0,1,-121.75228580174407,158.6706680582471L0,0Z" fill="#5856d6" opacity="0.8"></path><text fill="black" transform="translate(-38.268343236508926,92.38795325112869)" dy="5" text-anchor="middle">Table Tennis</text></g><g class="pie"><path d="M-121.75228580174407,158.6706680582471A200,200,0,0,1,-141.42135623730942,141.42135623730957L0,0Z" fill="#8e8e93" opacity="0.8"></path><text fill="black" transform="translate(-65.93458151000685,75.18398074789778)" dy="5" text-anchor="middle"></text></g><g class="pie"><path d="M-141.42135623730942,141.42135623730957A200,200,0,0,1,-173.2050807568877,100.00000000000007L0,0Z" fill="#ff9500" opacity="0.8"></path><text fill="black" transform="translate(-79.3353340291235,60.87614290087209)" dy="5" text-anchor="middle">Lunch</text></g><g class="pie"><path d="M-173.2050807568877,100.00000000000007A200,200,0,0,1,-193.18516525781368,-51.76380902050407L0,0Z" fill="#8e8e93" opacity="0.8"></path><text fill="black" transform="translate(-99.14448613738102,13.052619222005243)" dy="5" text-anchor="middle"></text></g><g class="pie"><path d="M-193.18516525781368,-51.76380902050407A200,200,0,0,1,-173.2050807568878,-99.99999999999987L0,0Z" fill="#ff2d55" opacity="0.8"></path><text fill="black" transform="translate(-92.38795325112869,-38.268343236508926)" dy="5" text-anchor="middle">Dinner</text></g><g class="pie"><path d="M-173.2050807568878,-99.99999999999987A200,200,0,0,1,-141.42135623730965,-141.42135623730937L0,0Z" fill="#8e8e93" opacity="0.8"></path><text fill="black" transform="translate(-79.33533402912357,-60.87614290087199)" dy="5" text-anchor="middle"></text></g><g class="pie"><path d="M-141.42135623730965,-141.42135623730937A200,200,0,0,1,-100.00000000000024,-173.20508075688758L0,0Z" fill="#af52de" opacity="0.8"></path><text fill="black" transform="translate(-60.87614290087215,-79.33533402912344)" dy="5" text-anchor="middle">Gym</text></g><g class="pie"><path d="M-100.00000000000024,-173.20508075688758A200,200,0,0,1,-2.1437508791444564e-13,-200L0,0Z" fill="#8e8e93" opacity="0.8"></path><text fill="black" transform="translate(-25.881904510252234,-96.59258262890678)" dy="5" text-anchor="middle"></text></g></g></svg>